# xmcd CD database file
#
# Track frame offsets:
#	150
#	22868
#	47754
#	81602
#	100887
#	168802
#	198757
#
# Disc length: 2859 seconds
#
# Revision: 0
# Processed by: cddbd v1.5.2PL0 Copyright (c) Steve Scherf et al.
# Submitted via: CDex 1.51
#
DISCID=4c0b2907
DTITLE=Bollani - Gatto - Gershwin and More Live
DYEAR=2006
DGENRE=Jazz
TTITLE0=But Not For Me
TTITLE1=The Man I Love
TTITLE2=Rhapsody In Blue
TTITLE3=Strike Up The Band
TTITLE4=I Got Rhythm
TTITLE5=We'll Be Together
TTITLE6=Javierito
EXTD=YEAR: 2006
EXTT0=
EXTT1=
EXTT2=
EXTT3=
EXTT4=
EXTT5=
EXTT6=
PLAYORDER=
